HIERARCHY
ROOT Hips
{
  OFFSET 5.80788e-005 67.184 3.4734
  CHANNELS 6 Xposition Yposition Zposition Zrotation Xrotation Yrotation
  JOINT Chest
  {
    OFFSET 0 8.7983 -4.7612
    CHANNELS 6 Xposition Yposition Zposition Zrotation Xrotation Yrotation
    JOINT Chest2
    {
      OFFSET 0 8.0291 0.4195
      CHANNELS 6 Xposition Yposition Zposition Zrotation Xrotation Yrotation
      JOINT Chest3
      {
        OFFSET 0 9.9351 -2.2114
        CHANNELS 6 Xposition Yposition Zposition Zrotation Xrotation Yrotation
        JOINT Neck
        {
          OFFSET 0 22.3885 -0.4656
          CHANNELS 6 Xposition Yposition Zposition Zrotation Xrotation Yrotation
          JOINT Head
          {
            OFFSET -0.0001 12.643 3.4389
            CHANNELS 6 Xposition Yposition Zposition Zrotation Xrotation Yrotation
            End Site
            {
              OFFSET 0.0001 17.6655 0.5274
            }
          }
        }
        JOINT LeftCollar
        {
          OFFSET 2.2603 21.606 7.4023
          CHANNELS 6 Xposition Yposition Zposition Zrotation Xrotation Yrotation
          JOINT LeftShoulder
          {
            OFFSET 13.5163 -1.1332 -5.0146
            CHANNELS 6 Xposition Yposition Zposition Zrotation Xrotation Yrotation
            JOINT LeftElbow
            {
              OFFSET -0.0995 -28.05 -0.2431
              CHANNELS 6 Xposition Yposition Zposition Zrotation Xrotation Yrotation
              JOINT LeftWrist
              {
                OFFSET 0.0679 -23.3996 -0.1402
                CHANNELS 6 Xposition Yposition Zposition Zrotation Xrotation Yrotation
                JOINT LeftFinger1
                {
                  OFFSET 0.7932 -9.069 2.5189
                  CHANNELS 6 Xposition Yposition Zposition Zrotation Xrotation Yrotation
                  JOINT LeftFinger11
                  {
                    OFFSET -0.8272 -3.3923 0.5977
                    CHANNELS 6 Xposition Yposition Zposition Zrotation Xrotation Yrotation
                    JOINT LeftFinger12
                    {
                      OFFSET -0.5649 -2.3158 0.4082
                      CHANNELS 6 Xposition Yposition Zposition Zrotation Xrotation Yrotation
                      End Site
                      {
                        OFFSET -0.4919 -1.6479 0.2673
                      }
                    }
                  }
                }
                JOINT LeftFinger2
                {
                  OFFSET 0.9159 -9.2044 0.2193
                  CHANNELS 6 Xposition Yposition Zposition Zrotation Xrotation Yrotation
                  JOINT LeftFinger21
                  {
                    OFFSET 0.0117 -4.1944 -0.0248
                    CHANNELS 6 Xposition Yposition Zposition Zrotation Xrotation Yrotation
                    JOINT LeftFinger22
                    {
                      OFFSET 0.0071 -2.3249 -0.0142
                      CHANNELS 6 Xposition Yposition Zposition Zrotation Xrotation Yrotation
                      End Site
                      {
                        OFFSET -0.1475 -2.0882 0.0028
                      }
                    }
                  }
                }
                JOINT LeftFinger3
                {
                  OFFSET 0.6113 -8.7231 -2.0637
                  CHANNELS 6 Xposition Yposition Zposition Zrotation Xrotation Yrotation
                  JOINT LeftFinger31
                  {
                    OFFSET -0.1927 -3.8059 -0.2383
                    CHANNELS 6 Xposition Yposition Zposition Zrotation Xrotation Yrotation
                    JOINT LeftFinger32
                    {
                      OFFSET -0.1091 -2.1688 -0.1362
                      CHANNELS 6 Xposition Yposition Zposition Zrotation Xrotation Yrotation
                      End Site
                      {
                        OFFSET -0.2358 -1.9176 -0.0906
                      }
                    }
                  }
                }
                JOINT LeftFinger4
                {
                  OFFSET -0.6151 -8.0947 -3.5641
                  CHANNELS 6 Xposition Yposition Zposition Zrotation Xrotation Yrotation
                  JOINT LeftFinger41
                  {
                    OFFSET -0.4882 -2.341 -0.6462
                    CHANNELS 6 Xposition Yposition Zposition Zrotation Xrotation Yrotation
                    JOINT LeftFinger42
                    {
                      OFFSET -0.3575 -1.7167 -0.4742
                      CHANNELS 6 Xposition Yposition Zposition Zrotation Xrotation Yrotation
                      End Site
                      {
                        OFFSET -0.4187 -1.5237 -0.3496
                      }
                    }
                  }
                }
                JOINT LeftFinger0
                {
                  OFFSET -1.42 -1.8761 1.4223
                  CHANNELS 6 Xposition Yposition Zposition Zrotation Xrotation Yrotation
                  JOINT LeftFinger01
                  {
                    OFFSET -1.1471 -3.4929 2.6334
                    CHANNELS 6 Xposition Yposition Zposition Zrotation Xrotation Yrotation
                    JOINT LeftFinger02
                    {
                      OFFSET -0.823 -2.3 1.6571
                      CHANNELS 6 Xposition Yposition Zposition Zrotation Xrotation Yrotation
                      End Site
                      {
                        OFFSET -0.5822 -1.6914 1.1582
                      }
                    }
                  }
                }
              }
            }
          }
        }
        JOINT RightCollar
        {
          OFFSET -2.2603 21.606 7.4023
          CHANNELS 6 Xposition Yposition Zposition Zrotation Xrotation Yrotation
          JOINT RightShoulder
          {
            OFFSET -13.5187 -1.1334 -5.0155
            CHANNELS 6 Xposition Yposition Zposition Zrotation Xrotation Yrotation
            JOINT RightElbow
            {
              OFFSET 0.0994 -28.0499 -0.2431
              CHANNELS 6 Xposition Yposition Zposition Zrotation Xrotation Yrotation
              JOINT RightWrist
              {
                OFFSET -0.0679 -23.3996 -0.1402
                CHANNELS 6 Xposition Yposition Zposition Zrotation Xrotation Yrotation
                JOINT RightFinger1
                {
                  OFFSET -0.7932 -9.0691 2.5189
                  CHANNELS 6 Xposition Yposition Zposition Zrotation Xrotation Yrotation
                  JOINT RightFinger11
                  {
                    OFFSET 0.8272 -3.3923 0.5977
                    CHANNELS 6 Xposition Yposition Zposition Zrotation Xrotation Yrotation
                    JOINT RightFinger12
                    {
                      OFFSET 0.565 -2.3158 0.4082
                      CHANNELS 6 Xposition Yposition Zposition Zrotation Xrotation Yrotation
                      End Site
                      {
                        OFFSET 0.4919 -1.6479 0.2673
                      }
                    }
                  }
                }
                JOINT RightFinger2
                {
                  OFFSET -0.916 -9.2044 0.2193
                  CHANNELS 6 Xposition Yposition Zposition Zrotation Xrotation Yrotation
                  JOINT RightFinger21
                  {
                    OFFSET -0.0117 -4.1944 -0.0248
                    CHANNELS 6 Xposition Yposition Zposition Zrotation Xrotation Yrotation
                    JOINT RightFinger22
                    {
                      OFFSET -0.0071 -2.3249 -0.0142
                      CHANNELS 6 Xposition Yposition Zposition Zrotation Xrotation Yrotation
                      End Site
                      {
                        OFFSET 0.1475 -2.0882 0.0028
                      }
                    }
                  }
                }
                JOINT RightFinger3
                {
                  OFFSET -0.6113 -8.7231 -2.0637
                  CHANNELS 6 Xposition Yposition Zposition Zrotation Xrotation Yrotation
                  JOINT RightFinger31
                  {
                    OFFSET 0.1927 -3.8059 -0.2383
                    CHANNELS 6 Xposition Yposition Zposition Zrotation Xrotation Yrotation
                    JOINT RightFinger32
                    {
                      OFFSET 0.1091 -2.1688 -0.1362
                      CHANNELS 6 Xposition Yposition Zposition Zrotation Xrotation Yrotation
                      End Site
                      {
                        OFFSET 0.2358 -1.9176 -0.0906
                      }
                    }
                  }
                }
                JOINT RightFinger4
                {
                  OFFSET 0.6151 -8.0947 -3.564
                  CHANNELS 6 Xposition Yposition Zposition Zrotation Xrotation Yrotation
                  JOINT RightFinger41
                  {
                    OFFSET 0.4882 -2.341 -0.6462
                    CHANNELS 6 Xposition Yposition Zposition Zrotation Xrotation Yrotation
                    JOINT RightFinger42
                    {
                      OFFSET 0.3574 -1.7166 -0.4742
                      CHANNELS 6 Xposition Yposition Zposition Zrotation Xrotation Yrotation
                      End Site
                      {
                        OFFSET 0.4187 -1.5237 -0.3496
                      }
                    }
                  }
                }
                JOINT RightFinger0
                {
                  OFFSET 1.4199 -1.8761 1.4221
                  CHANNELS 6 Xposition Yposition Zposition Zrotation Xrotation Yrotation
                  JOINT RightFinger01
                  {
                    OFFSET 1.1472 -3.4929 2.6336
                    CHANNELS 6 Xposition Yposition Zposition Zrotation Xrotation Yrotation
                    JOINT RightFinger02
                    {
                      OFFSET 0.8229 -2.3 1.6571
                      CHANNELS 6 Xposition Yposition Zposition Zrotation Xrotation Yrotation
                      End Site
                      {
                        OFFSET 0.5822 -1.6914 1.1582
                      }
                    }
                  }
                }
              }
            }
          }
        }
      }
    }
  }
  JOINT RightHip
  {
    OFFSET -9.412 3.9771 -0.7758
    CHANNELS 6 Xposition Yposition Zposition Zrotation Xrotation Yrotation
    JOINT RightKnee
    {
      OFFSET -0.7531 -40.938 0
      CHANNELS 6 Xposition Yposition Zposition Zrotation Xrotation Yrotation
      JOINT RightAnkle
      {
        OFFSET 0 -40.1986 0
        CHANNELS 6 Xposition Yposition Zposition Zrotation Xrotation Yrotation
        JOINT RightToe
        {
          OFFSET 0 -4.4182 9.239
          CHANNELS 6 Xposition Yposition Zposition Zrotation Xrotation Yrotation
          End Site
          {
            OFFSET 0 0 6.1981
          }
        }
      }
    }
  }
  JOINT LeftHip
  {
    OFFSET 9.4119 3.9773 -0.7758
    CHANNELS 6 Xposition Yposition Zposition Zrotation Xrotation Yrotation
    JOINT LeftKnee
    {
      OFFSET 0.7532 -40.9383 0
      CHANNELS 6 Xposition Yposition Zposition Zrotation Xrotation Yrotation
      JOINT LeftAnkle
      {
        OFFSET 0 -40.1986 0
        CHANNELS 6 Xposition Yposition Zposition Zrotation Xrotation Yrotation
        JOINT LeftToe
        {
          OFFSET 0 -4.4182 9.239
          CHANNELS 6 Xposition Yposition Zposition Zrotation Xrotation Yrotation
          End Site
          {
            OFFSET 0 0 6.1981
          }
        }
      }
    }
  }
}
MOTION
Frames:	4
Frame Time:	0.0333333
5.80788e-005 67.184 3.4734 0 0 -0 0 8.7983 -4.7612 0 0 -0 0 8.0291 0.4195 0 0 -0 0 9.9351 -2.2114 0 0 -0 0 22.3885 -0.4656 0 0 -0 -0.0001 12.643 3.4389 0 0 -0 2.2603 21.606 7.4023 0 0 -12.5014 13.5163 -1.1332 -5.0146 88.1196 14.2451 10.6914 -0.0995 -28.05 -0.2431 -0.00160068 -0.00239207 0.000740045 0.0679 -23.3996 -0.1402 -8.4365e-005 7.00714e-005 -9.52055e-007 0.7932 -9.069 2.5189 9.93923e-017 -1.98785e-016 -1.59028e-015 -0.8272 -3.3923 0.5977 9.93923e-017 -5.96354e-016 -1.59028e-015 -0.5649 -2.3158 0.4082 -9.93923e-017 -5.96354e-016 -1.59028e-015 0.9159 -9.2044 0.2193 9.93923e-017 -1.98785e-016 -1.59028e-015 0.0117 -4.1944 -0.0248 -0.0128176 0.00232552 8.52707e-005 0.0071 -2.3249 -0.0142 9.93923e-017 5.96354e-016 -0 0.6113 -8.7231 -2.0637 9.93923e-017 -1.98785e-016 -1.59028e-015 -0.1927 -3.8059 -0.2383 -0.0160551 0.00299681 0.000857156 -0.1091 -2.1688 -0.1362 -2.48481e-016 0 3.18055e-015 -0.6151 -8.0947 -3.5641 9.93923e-017 -1.98785e-016 -1.59028e-015 -0.4882 -2.341 -0.6462 -0.0125865 0.0031206 0.00282719 -0.3575 -1.7167 -0.4742 0 1.98785e-016 -0 -1.42 -1.8761 1.4223 9.93923e-017 -1.98785e-016 -1.59028e-015 -1.1471 -3.4929 2.6334 9.93923e-017 -5.96354e-016 -1.59028e-015 -0.823 -2.3 1.6571 -9.93923e-017 -5.96354e-016 -1.59028e-015 -2.2603 21.606 7.4023 -0.865644 0.16582 7.03859 -13.5187 -1.1334 -5.0155 -88.0329 10.2057 -10.5567 0.0994 -28.0499 -0.2431 0.0015593 -0.00248883 -0.000788628 -0.0679 -23.3996 -0.1402 7.87605e-005 4.10553e-005 1.24965e-005 -0.7932 -9.0691 2.5189 -3.97569e-016 -7.95139e-016 3.18055e-015 0.8272 -3.3923 0.5977 -1.98785e-016 -3.97569e-016 3.18055e-015 0.565 -2.3158 0.4082 -1.98785e-016 0 3.18055e-015 -0.916 -9.2044 0.2193 -3.97569e-016 -7.95139e-016 3.18055e-015 -0.0117 -4.1944 -0.0248 0.0129473 0.00231697 -8.70038e-005 -0.0071 -2.3249 -0.0142 9.93923e-017 -7.95139e-016 1.59028e-015 -0.6113 -8.7231 -2.0637 -3.97569e-016 -7.95139e-016 3.18055e-015 0.1927 -3.8059 -0.2383 0.0163314 0.00303369 -0.000872333 0.1091 -2.1688 -0.1362 3.97569e-016 7.95139e-016 -3.18055e-015 0.6151 -8.0947 -3.564 -3.97569e-016 -7.95139e-016 3.18055e-015 0.4882 -2.341 -0.6462 0.0145763 0.00367772 -0.00326275 0.3574 -1.7166 -0.4742 9.93923e-017 -3.97569e-016 -0 1.4199 -1.8761 1.4221 -3.97569e-016 -7.95139e-016 3.18055e-015 1.1472 -3.4929 2.6336 -1.98785e-016 -3.97569e-016 3.18055e-015 0.8229 -2.3 1.6571 -1.98785e-016 0 3.18055e-015 -9.412 3.9771 -0.7758 3.42485 1.36937 -0.0640303 -0.7531 -40.938 0 0.000136572 0.69354 0.00145564 1.77636e-015 -40.1986 -1.11022e-016 -3.42573 -2.06297 -0.0607933 8.88178e-016 -4.4182 9.239 -3.19502e-024 0 -1.48106e-024 9.4119 3.9773 -0.7758 -3.42498 1.36123 0.0639712 0.7532 -40.9383 2.22045e-016 -6.769e-005 0.712612 -0.0012277 8.88179e-016 -40.1986 0 3.42582 -2.07388 0.0612819 -8.88178e-016 -4.4182 9.239 2.55305e-023 0 -2.31416e-026 
39.93 18.9927 11.3376 -1.0662e-006 -64.0139 -7.68528e-007 7.10543e-015 8.7983 -4.7612 -1.80078 -7.61468 -0.879344 -7.10543e-015 8.0291 0.4195 -3.77097 -15.1965 -2.02935 0 9.9351 -2.2114 -3.77098 -15.1965 -2.02935 7.10543e-015 22.3885 -0.4656 -18.8862 6.43148 3.22435 -0.0001 12.643 3.4389 -1.25313 -16.3363 0.857112 2.2603 21.606 7.4023 16.4751 7.30084 4.45282 13.5163 -1.1332 -5.0146 98.7941 24.3814 -45.6795 -0.0995 -28.05 -0.2431 0.636054 -7.50952 -41.0155 0.0679 -23.3996 -0.1402 8.4408 -18.5309 -1.39709 0.7932 -9.069 2.5189 -3.37934e-015 0 6.36111e-015 -0.8272 -3.3923 0.5977 1.21356e-007 1.69813e-006 8.2928e-007 -0.5649 -2.3158 0.4082 2.78299e-015 0 -0 0.9159 -9.2044 0.2193 -3.37934e-015 0 6.36111e-015 0.0117 -4.1944 -0.0248 -0.0128163 0.00232597 8.61302e-005 0.0071 -2.3249 -0.0142 3.57812e-015 1.59028e-015 -1.59028e-015 0.6113 -8.7231 -2.0637 -3.37934e-015 0 6.36111e-015 -0.1927 -3.8059 -0.2383 -0.016068 0.00300249 0.000859321 -0.1091 -2.1688 -0.1362 3.97569e-016 3.18055e-015 -4.77083e-015 -0.6151 -8.0947 -3.5641 -3.37934e-015 0 6.36111e-015 -0.4882 -2.341 -0.6462 -0.0125278 0.00310763 0.0028158 -0.3575 -1.7167 -0.4742 5.96354e-016 -1.59028e-015 1.59028e-015 -1.42 -1.8761 1.4223 -3.37934e-015 0 6.36111e-015 -1.1471 -3.4929 2.6334 1.21356e-007 1.69813e-006 8.2928e-007 -0.823 -2.3 1.6571 2.78299e-015 0 -0 -2.2603 21.606 7.4023 -15.1203 5.95091 -5.31306 -13.5187 -1.1334 -5.0155 -94.0871 14.0596 43.6889 0.0994 -28.0499 -0.2431 -2.30586 -0.833294 40.8768 -0.0679 -23.3996 -0.1402 -1.28508 -21.8416 7.47878 -0.7932 -9.0691 2.5189 3.97569e-016 0 1.59028e-015 0.8272 -3.3923 0.5977 -6.55989e-015 0 -0 0.565 -2.3158 0.4082 -3.97569e-016 0 -0 -0.916 -9.2044 0.2193 3.97569e-016 0 1.59028e-015 -0.0117 -4.1944 -0.0248 0.0129368 0.0023153 -8.90147e-005 -0.0071 -2.3249 -0.0142 -3.18055e-015 3.18055e-015 -3.18055e-015 -0.6113 -8.7231 -2.0637 3.97569e-016 0 1.59028e-015 0.1927 -3.8059 -0.2383 0.0163312 0.0030359 -0.000874314 0.1091 -2.1688 -0.1362 2.5842e-015 0 -1.59028e-015 0.6151 -8.0947 -3.564 3.97569e-016 0 1.59028e-015 0.4882 -2.341 -0.6462 0.0145732 0.00367627 -0.00326163 0.3574 -1.7166 -0.4742 1.11319e-014 7.95139e-016 -1.59028e-015 1.4199 -1.8761 1.4221 3.97569e-016 0 1.59028e-015 1.1472 -3.4929 2.6336 -6.55989e-015 0 -0 0.8229 -2.3 1.6571 -3.97569e-016 0 -0 -9.412 3.9771 -0.7758 -42.6156 17.4679 -41.4355 -0.7531 -40.938 1.33227e-015 -144.299 23.087 177.212 0 -40.1986 -1.77636e-015 27.2991 27.7832 -59.5421 3.55271e-015 -4.4182 9.239 -1.98359e-006 8.90184e-006 -3.19397e-006 9.4119 3.9773 -0.7758 48.401 16.9497 32.1841 0.7532 -40.9383 7.10543e-015 135.461 26.7375 -175.311 0 -40.1986 3.55271e-015 -30.6941 35.9011 28.358 0 -4.4182 9.239 5.28672e-007 6.38407e-007 -6.69671e-007 
39.9301 18.8873 11.337 -1.2188e-007 -64.0139 5.00152e-007 0 8.7983 -4.7612 -1.80253 -7.40516 -0.859475 7.10543e-015 8.0291 0.4195 -3.76561 -14.7783 -1.98078 7.10543e-015 9.9351 -2.2114 -3.76563 -14.7783 -1.98079 0 22.3885 -0.4656 -18.8705 6.01115 3.07981 -0.0001 12.643 3.4389 -1.25758 -17.0019 0.841944 2.2603 21.606 7.4023 16.1771 7.2126 4.72608 13.5163 -1.1332 -5.0146 98.7941 24.3814 -45.6795 -0.0995 -28.05 -0.2431 0.636068 -7.50955 -41.0155 0.0679 -23.3996 -0.1402 8.74372 -18.351 -0.529642 0.7932 -9.069 2.5189 2.5842e-015 -1.59028e-015 1.59028e-015 -0.8272 -3.3923 0.5977 2.18663e-015 0 1.59028e-015 -0.5649 -2.3158 0.4082 5.96354e-016 1.59028e-015 -0 0.9159 -9.2044 0.2193 2.5842e-015 -1.59028e-015 1.59028e-015 0.0117 -4.1944 -0.0248 -0.0127926 0.0023227 8.49766e-005 0.0071 -2.3249 -0.0142 -3.18055e-015 0 1.59028e-015 0.6113 -8.7231 -2.0637 2.5842e-015 -1.59028e-015 1.59028e-015 -0.1927 -3.8059 -0.2383 -0.0160123 0.00299057 0.000853507 -0.1091 -2.1688 -0.1362 -1.19271e-015 -3.18055e-015 1.59028e-015 -0.6151 -8.0947 -3.5641 2.5842e-015 -1.59028e-015 1.59028e-015 -0.4882 -2.341 -0.6462 -0.0125729 0.00312019 0.00282757 -0.3575 -1.7167 -0.4742 5.96354e-016 -1.59028e-015 -1.59028e-015 -1.42 -1.8761 1.4223 2.5842e-015 -1.59028e-015 1.59028e-015 -1.1471 -3.4929 2.6334 2.18663e-015 0 1.59028e-015 -0.823 -2.3 1.6571 5.96354e-016 1.59028e-015 -0 -2.2603 21.606 7.4023 -14.7833 5.89801 -5.76461 -13.5187 -1.1334 -5.0155 -94.0871 14.0596 43.6889 0.0994 -28.0499 -0.2431 -2.30584 -0.833321 40.8768 -0.0679 -23.3996 -0.1402 -1.60069 -21.7901 6.62605 -0.7932 -9.0691 2.5189 -1.59028e-015 7.95139e-016 -0 0.8272 -3.3923 0.5977 -1.19271e-015 7.95139e-016 1.59028e-015 0.565 -2.3158 0.4082 -4.17448e-015 2.38542e-015 -0 -0.916 -9.2044 0.2193 -1.59028e-015 7.95139e-016 -0 -0.0117 -4.1944 -0.0248 0.0129504 0.00231666 -8.69339e-005 -0.0071 -2.3249 -0.0142 -1.98546e-006 -1.11243e-007 1.05831e-006 -0.6113 -8.7231 -2.0637 -1.59028e-015 7.95139e-016 -0 0.1927 -3.8059 -0.2383 0.016325 0.00303152 -0.000873465 0.1091 -2.1688 -0.1362 -1.49212e-005 -5.19492e-007 -1.68541e-006 0.6151 -8.0947 -3.564 -1.59028e-015 7.95139e-016 -0 0.4882 -2.341 -0.6462 0.014599 0.00368649 -0.00327107 0.3574 -1.7166 -0.4742 5.1684e-015 -1.59028e-015 -4.77083e-015 1.4199 -1.8761 1.4221 -1.59028e-015 7.95139e-016 -0 1.1472 -3.4929 2.6336 -1.19271e-015 7.95139e-016 1.59028e-015 0.8229 -2.3 1.6571 -4.17448e-015 2.38542e-015 -0 -9.412 3.9771 -0.7758 -42.8911 17.3951 -41.3417 -0.7531 -40.938 -1.77636e-015 -144.286 23.0936 177.211 3.55271e-015 -40.1986 1.77636e-015 27.0274 27.9728 -59.4124 0 -4.4182 9.239 -1.59028e-015 -1.90833e-014 9.54166e-015 9.4119 3.9773 -0.7758 48.6501 16.8341 32.1238 0.7532 -40.9383 -1.42109e-014 135.447 26.7432 -175.305 -7.10543e-015 -40.1986 3.55271e-015 -30.4267 36.0933 28.2119 0 -4.4182 9.239 5.39702e-006 -8.16956e-006 4.12034e-006 
39.9302 18.782 11.3363 4.46758e-007 -64.0139 4.48499e-007 7.10543e-015 8.7983 -4.7612 -1.80425 -7.19533 -0.839568 -7.10543e-015 8.0291 0.4195 -3.76043 -14.3594 -1.93223 -7.10543e-015 9.9351 -2.2114 -3.76045 -14.3594 -1.93224 0 22.3885 -0.4656 -18.8558 5.59066 2.93545 -0.0001 12.643 3.4389 -1.26223 -17.6678 0.826654 2.2603 21.606 7.4023 15.8795 7.12292 4.99888 13.5163 -1.1332 -5.0146 98.7941 24.3814 -45.6795 -0.0995 -28.05 -0.2431 0.636095 -7.50954 -41.0155 0.0679 -23.3996 -0.1402 9.0437 -18.1666 0.33662 0.7932 -9.069 2.5189 3.97569e-015 1.59028e-015 6.36111e-015 -0.8272 -3.3923 0.5977 1.98785e-016 6.36111e-015 3.18055e-015 -0.5649 -2.3158 0.4082 1.78906e-015 3.18055e-015 1.59028e-015 0.9159 -9.2044 0.2193 3.97569e-015 1.59028e-015 6.36111e-015 0.0117 -4.1944 -0.0248 -0.0127755 0.00231808 8.52609e-005 0.0071 -2.3249 -0.0142 3.18055e-015 0 -0 0.6113 -8.7231 -2.0637 3.97569e-015 1.59028e-015 6.36111e-015 -0.1927 -3.8059 -0.2383 -0.016043 0.00299433 0.00085794 -0.1091 -2.1688 -0.1362 -9.93923e-016 0 3.18055e-015 -0.6151 -8.0947 -3.5641 3.97569e-015 1.59028e-015 6.36111e-015 -0.4882 -2.341 -0.6462 -0.0125624 0.0031172 0.00281985 -0.3575 -1.7167 -0.4742 1.19271e-015 -4.77083e-015 -0 -1.42 -1.8761 1.4223 3.97569e-015 1.59028e-015 6.36111e-015 -1.1471 -3.4929 2.6334 1.98785e-016 6.36111e-015 3.18055e-015 -0.823 -2.3 1.6571 1.78906e-015 3.18055e-015 1.59028e-015 -2.2603 21.606 7.4023 -14.4466 5.84239 -6.21597 -13.5187 -1.1334 -5.0155 -94.0871 14.0596 43.6889 0.0994 -28.0499 -0.2431 -2.30583 -0.833327 40.8768 -0.0679 -23.3996 -0.1402 -1.91559 -21.7342 5.77332 -0.7932 -9.0691 2.5189 2.38542e-015 -7.95139e-016 1.59028e-015 0.8272 -3.3923 0.5977 -1.98785e-016 -2.38542e-015 -1.59028e-015 0.565 -2.3158 0.4082 -1.98785e-016 -3.97569e-015 -1.59028e-015 -0.916 -9.2044 0.2193 2.38542e-015 -7.95139e-016 1.59028e-015 -0.0117 -4.1944 -0.0248 0.0129489 0.00231599 -8.64209e-005 -0.0071 -2.3249 -0.0142 -6.75868e-015 -1.59028e-015 -1.59028e-015 -0.6113 -8.7231 -2.0637 2.38542e-015 -7.95139e-016 1.59028e-015 0.1927 -3.8059 -0.2383 0.01633 0.00303517 -0.000875378 0.1091 -2.1688 -0.1362 -2.78299e-015 0 -0 0.6151 -8.0947 -3.564 2.38542e-015 -7.95139e-016 1.59028e-015 0.4882 -2.341 -0.6462 0.014609 0.00368671 -0.0032694 0.3574 -1.7166 -0.4742 8.74653e-015 1.59028e-015 -0 1.4199 -1.8761 1.4221 2.38542e-015 -7.95139e-016 1.59028e-015 1.1472 -3.4929 2.6336 -1.98785e-016 -2.38542e-015 -1.59028e-015 0.8229 -2.3 1.6571 -1.98785e-016 -3.97569e-015 -1.59028e-015 -9.412 3.9771 -0.7758 -43.1663 17.3217 -41.2484 -0.7531 -40.938 -2.22045e-015 -144.273 23.1001 177.21 0 -40.1986 -3.55271e-015 26.7548 28.162 -59.2814 -3.55271e-015 -4.4182 9.239 -3.36776e-006 1.23965e-005 -1.21944e-007 9.4119 3.9773 -0.7758 48.899 16.7182 32.064 0.7532 -40.9383 0 135.434 26.7489 -175.299 -7.10543e-015 -40.1986 0 -30.158 36.2851 28.0643 7.10543e-015 -4.4182 9.239 -9.44221e-006 1.7137e-005 -1.21323e-005 
